<svg width="34" height="39" viewBox="0 0 34 39" fill="none" xmlns="http://www.w3.org/2000/svg">
<path d="M32.952 27.3549V27.0936C29.745 25.4164 28.0034 22.9528 28.0034 19.3887C28.0034 16.5067 29.3087 13.9892 31.7005 12.366L31.8092 12.3133C30.2326 10.4275 28.1122 8.54175 24.849 8.54175C22.566 8.54175 20.6619 10.69 17.5087 10.69C15.0082 10.69 13.9742 8.64605 11.2549 8.64605C5.59995 8.64605 0 13.5205 0 19.8611C0 23.2154 1.1415 28.4051 3.69704 32.9127C5.54862 36.2143 7.83162 38.3625 10.3872 38.3625C12.2351 38.3625 14.4105 36.7381 17.0211 36.7381C19.3041 36.7381 21.427 38.2067 23.4912 38.2067C28.441 38.2067 33.007 32.022 33.007 27.8836C33.007 27.6702 32.952 27.5132 32.952 27.3549Z" fill="#A8ACE6"/>
<path d="M17.3963 10.01C21.0933 8.90951 24.5203 6.23618 24.5203 1.57163C24.5203 1.2048 24.4665 0.733668 24.4115 0.209791L24.3577 0C20.6069 0.993808 17.235 3.82418 17.235 8.28014C17.235 8.69972 17.29 9.22359 17.3975 9.80022L17.3963 10.01Z" fill="#A8ACE6"/>
</svg>
