<svg width="35" height="34" viewBox="0 0 35 34" fill="none" xmlns="http://www.w3.org/2000/svg">
<path fill-rule="evenodd" clip-rule="evenodd" d="M0.938071 32.1616C0.390809 31.6164 0.0857687 30.9471 0.0118719 30.1875C-3.53034e-05 30.0646 0.00321212 29.9403 0.00321212 29.8167C0.00288738 21.124 0.00487189 12.4312 7.62492e-07 3.73855C-0.000540474 2.83594 0.287036 2.04165 0.924288 1.39209C6.6506 6.53955 12.3665 11.6777 18.0489 16.7856C12.3865 21.8738 6.67095 27.01 0.938071 32.1616Z" fill="#A8ACE6"/>
<path fill-rule="evenodd" clip-rule="evenodd" d="M2.60205 33.1665C8.24845 28.0925 13.8691 23.0415 19.4489 18.0271C21.4364 19.8113 23.4474 21.6165 25.4608 23.4239C22.9992 24.6074 20.5031 25.8068 18.0078 27.0073C13.9252 28.9713 9.84261 30.9353 5.76118 32.9011C4.75596 33.3853 3.71855 33.5129 2.60205 33.1665Z" fill="#A8ACE6"/>
<path fill-rule="evenodd" clip-rule="evenodd" d="M2.60986 0.362964C3.70561 0.0522389 4.74554 0.148146 5.75791 0.636429C10.2613 2.80843 14.7693 4.97272 19.2756 7.13976C21.2137 8.07191 23.1518 9.00402 25.0897 9.93661C25.2215 10.0001 25.3504 10.0683 25.4357 10.1115C23.4287 11.9152 21.4245 13.7164 19.4453 15.4954C13.8748 10.4884 8.25633 5.43822 2.60986 0.362964Z" fill="#A8ACE6"/>
<path fill-rule="evenodd" clip-rule="evenodd" d="M20.7991 16.7937C22.969 14.8459 25.1 12.9333 27.2509 11.0027C27.2358 11.0027 27.267 10.9942 27.2874 11.004C29.2392 11.9409 31.2203 12.8325 33.1336 13.8293C35.6065 15.1175 35.6269 18.389 33.1656 19.6889C31.2948 20.677 29.3489 21.5504 27.4304 22.4646C27.3432 22.5062 27.1515 22.4892 27.0851 22.4301C24.9852 20.5579 22.8951 18.6771 20.7991 16.7937Z" fill="#A8ACE6"/>
</svg>
